<?xml version="1.0" encoding="UTF-8" standalone="no"?>
<!-- Created with Inkscape (http://www.inkscape.org/) -->

<svg
   xmlns:dc="http://purl.org/dc/elements/1.1/"
   xmlns:cc="http://creativecommons.org/ns#"
   xmlns:rdf="http://www.w3.org/1999/02/22-rdf-syntax-ns#"
   xmlns:svg="http://www.w3.org/2000/svg"
   xmlns="http://www.w3.org/2000/svg"
   xmlns:xlink="http://www.w3.org/1999/xlink"
   xmlns:sodipodi="http://sodipodi.sourceforge.net/DTD/sodipodi-0.dtd"
   xmlns:inkscape="http://www.inkscape.org/namespaces/inkscape"
   width="500"
   height="500"
   viewBox="0 0 500.00001 500.00001"
   id="svg4383"
   version="1.1"
   inkscape:version="0.91 r13725"
   sodipodi:docname="character.svg">
  <defs
     id="defs4385">
    <radialGradient
       inkscape:collect="always"
       xlink:href="#linearGradient4364"
       id="radialGradient4377"
       cx="253.04321"
       cy="316.97113"
       fx="253.04321"
       fy="316.97113"
       r="10.606603"
       gradientTransform="matrix(1,0,0,0.95238094,-4.1668792,15.472673)"
       gradientUnits="userSpaceOnUse" />
    <linearGradient
       inkscape:collect="always"
       id="linearGradient4364">
      <stop
         style="stop-color:#006680;stop-opacity:1"
         offset="0"
         id="stop4366" />
      <stop
         style="stop-color:#55ffdd;stop-opacity:1"
         offset="1"
         id="stop4368" />
    </linearGradient>
    <filter
       inkscape:collect="always"
       style="color-interpolation-filters:sRGB"
       id="filter6001"
       x="-0.70051426"
       width="2.4010286"
       y="-0.73553997"
       height="2.4710801">
      <feGaussianBlur
         inkscape:collect="always"
         stdDeviation="6.1917305"
         id="feGaussianBlur6003" />
    </filter>
    <radialGradient
       inkscape:collect="always"
       xlink:href="#linearGradient4364"
       id="radialGradient4377-6"
       cx="253.04321"
       cy="316.97113"
       fx="253.04321"
       fy="316.97113"
       r="10.606603"
       gradientTransform="matrix(0.278369,0,0,0.28389835,-7.0840899,711.59167)"
       gradientUnits="userSpaceOnUse" />
    <filter
       inkscape:collect="always"
       style="color-interpolation-filters:sRGB"
       id="filter7143"
       x="-0.21693334"
       width="1.4338667"
       y="-0.2127082"
       height="1.4254164">
      <feGaussianBlur
         inkscape:collect="always"
         stdDeviation="0.53375529"
         id="feGaussianBlur7145" />
    </filter>
    <linearGradient
       inkscape:collect="always"
       xlink:href="#linearGradient3625"
       id="linearGradient3972"
       x1="1284.9141"
       y1="662.4433"
       x2="347.49246"
       y2="345.2554"
       gradientUnits="userSpaceOnUse"
       gradientTransform="matrix(0.25162597,0,0,0.25162597,192.50958,272.09256)" />
    <linearGradient
       inkscape:collect="always"
       id="linearGradient3625">
      <stop
         style="stop-color:#00222b;stop-opacity:1"
         offset="0"
         id="stop3627" />
      <stop
         style="stop-color:#0088aa;stop-opacity:1"
         offset="1"
         id="stop3629" />
    </linearGradient>
    <clipPath
       clipPathUnits="userSpaceOnUse"
       id="clipPath3834">
      <path
         style="fill:#00aad4;fill-opacity:1;stroke-width:3;stroke-miterlimit:4;stroke-dasharray:none"
         d="m 537.77947,396.08565 c 14.43503,126.93913 -75.58756,253.6113 -83.90236,254.55682 -8.31479,0.94552 68.22688,-124.19364 53.79185,-251.13277 C 493.23393,272.57059 385.03072,190.80648 393.34551,189.86095 c 8.31478,-0.94552 129.99893,79.28558 144.43396,206.2247 z"
         id="path3836"
         inkscape:connector-curvature="0"
         sodipodi:nodetypes="sssss" />
    </clipPath>
    <clipPath
       clipPathUnits="userSpaceOnUse"
       id="clipPath3861">
      <path
         style="fill:#00aad4;fill-opacity:1;stroke-width:3;stroke-miterlimit:4;stroke-dasharray:none"
         d="m 657.77948,376.08566 c 14.43503,126.93914 -75.58757,253.61131 -83.90237,254.55683 -8.31479,0.94552 68.22688,-124.19364 53.79185,-251.13278 C 613.23393,252.57059 505.03072,170.80648 513.34551,169.86095 c 8.31478,-0.94552 129.99893,79.28558 144.43397,206.22471 z"
         id="path3863"
         inkscape:connector-curvature="0"
         sodipodi:nodetypes="sssss" />
    </clipPath>
    <clipPath
       clipPathUnits="userSpaceOnUse"
       id="clipPath3880">
      <path
         style="fill:#00aad4;fill-opacity:1;stroke-width:3;stroke-miterlimit:4;stroke-dasharray:none"
         d="m 777.77949,376.08567 c 14.43503,126.93915 -75.58758,253.61132 -83.90238,254.55684 -8.31479,0.94552 68.22688,-124.19364 53.79185,-251.13279 C 733.23393,252.57059 625.03072,170.80648 633.34551,169.86095 c 8.31478,-0.94552 129.99893,79.28558 144.43398,206.22472 z"
         id="path3882"
         inkscape:connector-curvature="0"
         sodipodi:nodetypes="sssss" />
    </clipPath>
    <clipPath
       clipPathUnits="userSpaceOnUse"
       id="clipPath3911">
      <path
         style="fill:#00aad4;fill-opacity:1;stroke-width:3;stroke-miterlimit:4;stroke-dasharray:none"
         d="m 891.7795,376.08568 c 14.43503,126.93916 -75.58759,253.61133 -83.90239,254.55685 -8.31479,0.94552 68.22688,-124.19364 53.79185,-251.1328 C 847.23393,252.57059 739.03072,170.80648 747.34551,169.86095 c 8.31478,-0.94552 129.99893,79.28558 144.43399,206.22473 z"
         id="path3913"
         inkscape:connector-curvature="0"
         sodipodi:nodetypes="sssss" />
    </clipPath>
    <clipPath
       clipPathUnits="userSpaceOnUse"
       id="clipPath3930">
      <path
         style="fill:#00aad4;fill-opacity:1;stroke-width:3;stroke-miterlimit:4;stroke-dasharray:none"
         d="m 991.77951,376.08569 c 14.43499,126.93917 -75.5876,253.61134 -83.9024,254.55686 -8.31479,0.94552 68.22688,-124.19364 53.79185,-251.13281 C 947.23393,252.57059 839.03072,170.80648 847.34551,169.86095 c 8.31478,-0.94552 129.99893,79.28558 144.434,206.22474 z"
         id="path3932"
         inkscape:connector-curvature="0"
         sodipodi:nodetypes="sssss" />
    </clipPath>
    <clipPath
       clipPathUnits="userSpaceOnUse"
       id="clipPath3949">
      <path
         style="fill:#00aad4;fill-opacity:1;stroke-width:3;stroke-miterlimit:4;stroke-dasharray:none"
         d="m 1073.7795,376.0857 c 14.435,126.93918 -75.58759,253.61135 -83.90239,254.55687 -8.31479,0.94552 68.22689,-124.19364 53.79189,-251.13282 -14.4351,-126.93916 -122.63828,-208.70327 -114.32349,-209.6488 8.31478,-0.94552 129.99889,79.28558 144.43399,206.22475 z"
         id="path3951"
         inkscape:connector-curvature="0"
         sodipodi:nodetypes="sssss" />
    </clipPath>
    <radialGradient
       inkscape:collect="always"
       xlink:href="#linearGradient3625"
       id="radialGradient3631"
       cx="83.451897"
       cy="539.46979"
       fx="83.451897"
       fy="539.46979"
       r="56.76524"
       gradientTransform="matrix(2.1467163,-0.53192973,0.06489832,0.26191,1.3571562,310.94407)"
       gradientUnits="userSpaceOnUse" />
    <linearGradient
       inkscape:collect="always"
       xlink:href="#linearGradient3625"
       id="linearGradient4365"
       x1="248.65015"
       y1="285.43066"
       x2="420.08444"
       y2="285.43066"
       gradientUnits="userSpaceOnUse"
       gradientTransform="matrix(1.1923603,0,0,1.1923603,-217.35477,1264.8172)" />
  </defs>
  <sodipodi:namedview
     id="base"
     pagecolor="#ffffff"
     bordercolor="#666666"
     borderopacity="1.0"
     inkscape:pageopacity="0.0"
     inkscape:pageshadow="2"
     inkscape:zoom="0.49497475"
     inkscape:cx="416.70731"
     inkscape:cy="123.25971"
     inkscape:document-units="px"
     inkscape:current-layer="layer1"
     showgrid="false"
     units="px"
     inkscape:window-width="1398"
     inkscape:window-height="865"
     inkscape:window-x="660"
     inkscape:window-y="187"
     inkscape:window-maximized="0" />
  <metadata
     id="metadata4388">
    <rdf:RDF>
      <cc:Work
         rdf:about="">
        <dc:format>image/svg+xml</dc:format>
        <dc:type
           rdf:resource="http://purl.org/dc/dcmitype/StillImage" />
        <dc:title></dc:title>
      </cc:Work>
    </rdf:RDF>
  </metadata>
  <g
     inkscape:label="Layer 1"
     inkscape:groupmode="layer"
     id="layer1"
     transform="translate(0,-552.36216)">
    <path
       style="fill:url(#linearGradient4365);fill-opacity:1;fill-rule:evenodd;stroke:url(#linearGradient4365);stroke-width:1.09195256px;stroke-linecap:butt;stroke-linejoin:miter;stroke-opacity:1"
       d="m 227.70561,809.1528 c -32.01318,-32.46826 -44.64842,-89.26617 -91.00068,-90.44916 -42.069811,12.66164 -59.970479,50.95529 -87.691591,76.66118 28.487084,-28.31132 33.017737,-56.62265 85.485501,-84.93398 45.23393,10.79297 68.26386,61.55312 100.37652,95.96436 z"
       id="path3549"
       inkscape:connector-curvature="0"
       sodipodi:nodetypes="cccccc"
       inkscape:export-xdpi="90"
       inkscape:export-ydpi="90" />
    <g
       id="g4791"
       transform="matrix(1.0919525,0,0,1.3822645,-103.05593,322.91741)"
       inkscape:export-xdpi="90"
       inkscape:export-ydpi="90">
      <circle
         transform="matrix(0.97861625,-0.20569451,0.20569451,0.97861625,0,0)"
         r="21.747673"
         cy="401.20547"
         cx="163.65938"
         id="path3368-90-8"
         style="fill:#b7c8c4;stroke-width:3;stroke-miterlimit:4;stroke-dasharray:none" />
      <circle
         transform="matrix(0.97861625,-0.20569451,0.20569451,0.97861625,0,0)"
         r="15.636756"
         cy="399.26434"
         cx="164.30641"
         id="path3402-0"
         style="fill:#1c2422;stroke-width:3;stroke-miterlimit:4;stroke-dasharray:none" />
      <path
         sodipodi:nodetypes="sssss"
         inkscape:connector-curvature="0"
         id="path3368-9-9"
         d="m 265.16169,360.41566 c -1.43156,9.01936 -13.0378,-12.24627 -24.79187,-9.77569 -11.75407,2.47058 -18.56394,14.26224 -20.44239,5.32527 -1.87846,-8.93698 7.39775,-19.48017 19.15182,-21.95074 11.75406,-2.47058 29.24318,6.48734 26.08244,26.40116 z"
         style="fill:#004455;stroke-width:3;stroke-miterlimit:4;stroke-dasharray:none" />
      <ellipse
         transform="matrix(0.97861625,-0.20569451,0.20569451,0.97861625,0,0)"
         ry="5.9311833"
         rx="6.2906489"
         cy="405.23148"
         cx="166.96646"
         id="path3402-9-7-2"
         style="fill:#ffffff;stroke-width:3;stroke-miterlimit:4;stroke-dasharray:none" />
      <ellipse
         transform="matrix(0.97861625,-0.20569451,0.20569451,0.97861625,0,0)"
         ry="5.0186939"
         rx="5.3228569"
         cy="404.74481"
         cx="167.80521"
         id="path3402-9-1"
         style="fill:#dbe3e2;stroke-width:3;stroke-miterlimit:4;stroke-dasharray:none" />
      <circle
         transform="matrix(0.97861625,-0.20569451,0.20569451,0.97861625,0,0)"
         r="3.56111"
         cy="398.69162"
         cx="155.39407"
         id="path3402-9-0-4-6"
         style="fill:#ffffff;stroke-width:3;stroke-miterlimit:4;stroke-dasharray:none" />
      <circle
         transform="matrix(0.97861625,-0.20569451,0.20569451,0.97861625,0,0)"
         r="3.0699224"
         cy="398.47003"
         cx="155.75464"
         id="path3402-9-0-3"
         style="fill:#dbe3e2;stroke-width:3;stroke-miterlimit:4;stroke-dasharray:none" />
      <path
         sodipodi:nodetypes="sssss"
         inkscape:connector-curvature="0"
         id="path3528-4-0"
         d="m 267.29033,436.07291 c -2.26566,13.31616 1.44499,24.3476 8.28797,24.6394 6.84298,0.2918 19.90141,-5.34726 22.16707,-18.66342 2.26565,-13.31616 7.56655,-36.91585 0.72358,-37.20766 -6.84297,-0.2918 -28.91297,17.91551 -31.17862,31.23168 z"
         style="fill:#00222b;stroke-width:3;stroke-miterlimit:4;stroke-dasharray:none" />
      <path
         sodipodi:nodetypes="sssss"
         inkscape:connector-curvature="0"
         id="path3528-4"
         d="m 265.78057,435.56966 c -2.26566,13.31616 1.445,24.3476 8.28797,24.6394 6.84299,0.2918 19.90142,-5.34726 22.16707,-18.66342 2.26566,-13.31616 7.56656,-36.91586 0.72358,-37.20766 -6.84297,-0.2918 -28.91296,17.91551 -31.17862,31.23168 z"
         style="fill:#004455;stroke-width:3;stroke-miterlimit:4;stroke-dasharray:none" />
      <path
         sodipodi:nodetypes="cscccsscsc"
         inkscape:connector-curvature="0"
         id="path3509"
         d="m 519.56305,302.2508 c -0.90097,0.004 -1.85096,0.11306 -2.8521,0.33892 -16.01791,3.61361 -44.15261,55.87416 -43.82021,65.98124 0.003,0.0537 0.006,0.10655 0.009,0.16002 -0.003,0.0535 0,0 -0.009,0.16002 -0.33235,10.10709 21.33192,27.1404 37.34982,30.75402 16.01798,3.61362 20.32403,-7.56084 20.6564,-17.66793 0.14673,-4.46201 -2.96948,-7.68381 -7.07031,-11.80825 4.10083,-4.12443 7.21704,-10.22196 7.07031,-14.68397 -0.31161,-9.47539 2.1808,-53.28826 -11.33391,-53.23407 z"
         style="fill:#004455;stroke-width:3;stroke-miterlimit:4;stroke-dasharray:none" />
      <path
         sodipodi:nodetypes="cscccsscsc"
         inkscape:connector-curvature="0"
         id="path3509-2"
         d="m 515.96654,311.95636 c -0.7689,0.003 -1.57964,0.0965 -2.43401,0.28924 -13.66988,3.08391 -37.68038,47.68369 -37.3967,56.30919 0.003,0.0459 0.005,0.0909 0.008,0.13656 -0.003,0.0456 0,0 -0.008,0.13657 -0.28363,8.62551 18.20491,23.16194 31.8748,26.24585 13.66993,3.08391 17.34475,-6.45252 17.62841,-15.07802 0.12521,-3.80794 -2.5342,-6.55746 -6.03389,-10.07731 3.49969,-3.51984 6.1591,-8.72354 6.03389,-12.53148 -0.26594,-8.08641 1.86112,-45.47684 -9.6725,-45.4306 z"
         style="fill:#006680;stroke-width:3;stroke-miterlimit:4;stroke-dasharray:none" />
      <path
         sodipodi:nodetypes="cscccsscsc"
         inkscape:connector-curvature="0"
         id="path3509-2-7"
         d="m 506.36753,335.34096 c -0.2794,10e-4 -0.57403,0.0426 -0.88451,0.12764 -4.96768,1.36091 -13.69313,21.04259 -13.59004,24.84898 0,0.0202 0.003,0.0401 0.003,0.0603 0,0.0201 0,0 -0.003,0.0603 -0.10307,3.80639 6.6157,10.22126 11.58337,11.58217 4.96768,1.36092 6.30311,-2.84746 6.4062,-6.65386 0.0455,-1.68043 -0.92095,-2.89377 -2.19275,-4.44707 1.2718,-1.55329 2.23824,-3.84966 2.19275,-5.53008 -0.0966,-3.5685 0.67632,-20.06872 -3.51502,-20.04831 z"
         style="opacity:0.25;fill:#0088aa;fill-opacity:1;stroke-width:3;stroke-miterlimit:4;stroke-dasharray:none" />
      <path
         sodipodi:nodetypes="sssss"
         inkscape:connector-curvature="0"
         id="path3500"
         d="m 484.46757,372.97787 c -31.63296,28.34125 -119.52081,61.10916 -169.84751,61.10916 -50.3267,0 -91.12455,-9.04318 -91.12455,-38.82229 0,-29.77911 55.89541,-84.11497 106.22211,-84.11497 50.3267,0 176.92932,41.95673 154.74995,61.8281 z"
         style="fill:url(#linearGradient3972);fill-opacity:1;stroke-width:3;stroke-miterlimit:4;stroke-dasharray:none" />
      <path
         transform="matrix(0.25162597,0,0,0.25162597,192.50958,272.09256)"
         clip-path="url(#clipPath3834)"
         sodipodi:nodetypes="sssss"
         inkscape:connector-curvature="0"
         id="path3500-1"
         d="m 1160.2856,400.93361 c -125.7142,112.63246 -474.99394,242.85716 -674.99991,242.85716 -200.00598,0 -362.14287,-35.93898 -362.14287,-154.28572 -1e-5,-118.34675 222.13689,-334.28575 422.14287,-334.28574 200.00598,0 703.14411,166.74243 614.99991,245.7143 z"
         style="fill:#00aad4;stroke-width:3;stroke-miterlimit:4;stroke-dasharray:none" />
      <path
         transform="matrix(0.25162597,0,0,0.25162597,192.50958,272.09256)"
         clip-path="url(#clipPath3861)"
         sodipodi:nodetypes="sssss"
         inkscape:connector-curvature="0"
         id="path3500-3"
         d="m 1160.2856,400.93361 c -125.7142,112.63246 -474.99394,242.85716 -674.99991,242.85716 -200.00598,0 -362.14287,-35.93898 -362.14287,-154.28572 -1e-5,-118.34675 222.13689,-334.28575 422.14287,-334.28574 200.00598,0 703.14411,166.74243 614.99991,245.7143 z"
         style="fill:#00aad4;stroke-width:3;stroke-miterlimit:4;stroke-dasharray:none" />
      <path
         transform="matrix(0.25162597,0,0,0.25162597,192.50958,272.09256)"
         clip-path="url(#clipPath3880)"
         sodipodi:nodetypes="sssss"
         inkscape:connector-curvature="0"
         id="path3500-8"
         d="m 1160.2856,400.93361 c -125.7142,112.63246 -474.99394,242.85716 -674.99991,242.85716 -200.00598,0 -362.14287,-35.93898 -362.14287,-154.28572 -1e-5,-118.34675 222.13689,-334.28575 422.14287,-334.28574 200.00598,0 703.14411,166.74243 614.99991,245.7143 z"
         style="fill:#00aad4;stroke-width:3;stroke-miterlimit:4;stroke-dasharray:none" />
      <path
         transform="matrix(0.25162597,0,0,0.25162597,192.50958,272.09256)"
         clip-path="url(#clipPath3911)"
         sodipodi:nodetypes="sssss"
         inkscape:connector-curvature="0"
         id="path3500-5"
         d="m 1160.2856,400.93361 c -125.7142,112.63246 -474.99394,242.85716 -674.99991,242.85716 -200.00598,0 -362.14287,-35.93898 -362.14287,-154.28572 -1e-5,-118.34675 222.13689,-334.28575 422.14287,-334.28574 200.00598,0 703.14411,166.74243 614.99991,245.7143 z"
         style="fill:#00aad4;stroke-width:3;stroke-miterlimit:4;stroke-dasharray:none" />
      <path
         transform="matrix(0.25162597,0,0,0.25162597,192.50958,272.09256)"
         clip-path="url(#clipPath3930)"
         sodipodi:nodetypes="sssss"
         inkscape:connector-curvature="0"
         id="path3500-39"
         d="m 1160.2856,400.93361 c -125.7142,112.63246 -474.99394,242.85716 -674.99991,242.85716 -200.00598,0 -362.14287,-35.93898 -362.14287,-154.28572 -1e-5,-118.34675 222.13689,-334.28575 422.14287,-334.28574 200.00598,0 703.14411,166.74243 614.99991,245.7143 z"
         style="fill:#00aad4;stroke-width:3;stroke-miterlimit:4;stroke-dasharray:none" />
      <path
         transform="matrix(0.25162597,0,0,0.25162597,192.50958,272.09256)"
         clip-path="url(#clipPath3949)"
         sodipodi:nodetypes="sssss"
         inkscape:connector-curvature="0"
         id="path3500-0"
         d="m 1160.2856,400.93361 c -125.7142,112.63246 -474.99394,242.85716 -674.99991,242.85716 -200.00598,0 -362.14287,-35.93898 -362.14287,-154.28572 -1e-5,-118.34675 222.13689,-334.28575 422.14287,-334.28574 200.00598,0 703.14411,166.74243 614.99991,245.7143 z"
         style="fill:#00aad4;stroke-width:3;stroke-miterlimit:4;stroke-dasharray:none" />
      <path
         id="path3606-9"
         d="m 224.06308,387.04336 c -1.91497,-0.006 -3.94385,0.38324 -5.92746,1.21144 -6.34757,2.65026 -9.82721,8.78905 -7.7719,13.71165 0.83078,1.98978 3.67929,3.85843 7.19689,5.20404 -0.36349,1.9427 -0.39394,3.66334 0.0344,4.89246 1.80838,5.18906 7.8023,7.13082 13.38728,4.3371 5.58498,-2.79372 8.64652,-9.26518 6.83814,-14.45424 -1.15202,-3.30564 -2.69348,-8.30127 -5.10329,-10.77322 -1.7047,-2.63752 -4.96698,-4.11744 -8.65407,-4.12923 z"
         style="fill:#004455;fill-opacity:1;stroke-width:3;stroke-miterlimit:4;stroke-dasharray:none"
         inkscape:connector-curvature="0" />
      <circle
         r="21.747673"
         cy="353.89026"
         cx="277.59509"
         id="path3368-90"
         style="fill:#dbe3e2;stroke-width:3;stroke-miterlimit:4;stroke-dasharray:none" />
      <circle
         r="21.747673"
         cy="350.87073"
         cx="278.60159"
         id="path3368"
         style="fill:#b7c8c4;stroke-width:3;stroke-miterlimit:4;stroke-dasharray:none" />
      <circle
         r="15.636757"
         cy="351.94913"
         cx="278.24216"
         id="path3402"
         style="fill:#1c2422;stroke-width:3;stroke-miterlimit:4;stroke-dasharray:none" />
      <path
         sodipodi:nodetypes="sssss"
         inkscape:connector-curvature="0"
         id="path3368-9"
         d="m 299.19899,359.82143 c -3.25618,8.53202 -10.24002,-14.6662 -22.25093,-14.6662 -12.0109,0 -21.10063,10.13876 -21.10063,1.0065 0,-9.13226 11.24652,-17.54192 23.25743,-17.54192 12.01091,0 27.28345,12.36378 20.09413,31.20162 z"
         style="fill:#004455;stroke-width:3;stroke-miterlimit:4;stroke-dasharray:none" />
      <ellipse
         ry="5.9311833"
         rx="6.2906494"
         cy="357.91626"
         cx="280.90219"
         id="path3402-9-7"
         style="fill:#ffffff;stroke-width:3;stroke-miterlimit:4;stroke-dasharray:none" />
      <ellipse
         ry="5.0186939"
         rx="5.3228574"
         cy="357.4296"
         cx="281.74094"
         id="path3402-9"
         style="fill:#dbe3e2;stroke-width:3;stroke-miterlimit:4;stroke-dasharray:none" />
      <circle
         r="3.5611103"
         cy="351.37637"
         cx="269.3298"
         id="path3402-9-0-4"
         style="fill:#ffffff;stroke-width:3;stroke-miterlimit:4;stroke-dasharray:none" />
      <circle
         r="3.0699224"
         cy="351.15482"
         cx="269.69037"
         id="path3402-9-0"
         style="fill:#dbe3e2;stroke-width:3;stroke-miterlimit:4;stroke-dasharray:none" />
      <path
         sodipodi:nodetypes="scccsccss"
         inkscape:connector-curvature="0"
         id="path3503"
         d="m 347.93692,275.74535 c -24.54584,-0.13382 -54.83422,2.98542 -61.54073,45.80526 l 0.11107,0.003 c -0.57974,0.62379 -0.87954,1.25645 -0.89593,1.89063 10e-4,5.95566 25.90127,-6.11134 56.07658,-6.11133 30.1753,-1e-5 36.44621,5.06737 49.4106,4.32242 1.93441,-0.26217 0.79719,-0.40789 -2.10711,-1.74294 -9.19395,-3.1651 -4.96919,-43.89278 -28.19502,-43.98914 -3.96542,-0.0165 -8.31393,-0.15264 -12.85946,-0.17742 z"
         style="fill:#004455;stroke-width:3;stroke-miterlimit:4;stroke-dasharray:none" />
      <path
         sodipodi:nodetypes="sssss"
         inkscape:connector-curvature="0"
         id="path3528-7"
         d="m 353.57385,442.92622 c 4.94022,12.5717 3.56326,24.12876 -3.07552,25.8134 -6.63879,1.68466 -20.57428,-1.16557 -25.5145,-13.73727 -4.94022,-12.5717 -14.95399,-34.58918 -8.31521,-36.27382 6.63879,-1.68465 31.96501,11.62599 36.90523,24.19769 z"
         style="fill:#004455;stroke-width:3;stroke-miterlimit:4;stroke-dasharray:none" />
      <path
         sodipodi:nodetypes="sssss"
         inkscape:connector-curvature="0"
         id="path3528"
         d="m 352.06409,441.91972 c 4.94022,12.5717 3.56327,24.12875 -3.07552,25.8134 -6.63878,1.68465 -20.57427,-1.16557 -25.51449,-13.73727 -4.94022,-12.5717 -14.95399,-34.58918 -8.31521,-36.27383 6.63878,-1.68465 31.965,11.62599 36.90522,24.1977 z"
         style="fill:#006680;stroke-width:3;stroke-miterlimit:4;stroke-dasharray:none" />
      <path
         sodipodi:nodetypes="scccsccss"
         inkscape:connector-curvature="0"
         id="path3503-2"
         d="m 346.36747,278.98005 c -22.73698,-0.11725 -50.7933,2.61577 -57.00558,40.13373 l 0.10288,0.002 c -0.53701,0.54655 -0.81472,1.10088 -0.8299,1.65654 0.001,5.21823 23.99251,-5.35465 51.9441,-5.35464 27.95157,-1e-5 35.27523,3.91625 46.77586,5.29699 1.79186,-0.22971 0.73844,-0.35739 -1.95183,-1.52714 -7.4997,-4.29834 -5.60949,-39.96786 -27.12373,-40.05229 -3.6732,-0.0144 -7.70125,-0.13373 -11.9118,-0.15545 z"
         style="fill:#006680;stroke-width:3;stroke-miterlimit:4;stroke-dasharray:none" />
      <path
         inkscape:connector-curvature="0"
         id="path3606"
         d="m 222.55333,386.54011 c -1.91497,-0.006 -3.94385,0.38324 -5.92746,1.21144 -6.34757,2.65026 -9.82721,8.78905 -7.77191,13.71165 0.83078,1.98978 3.6793,3.85842 7.1969,5.20404 -0.3635,1.9427 -0.39394,3.66334 0.0344,4.89245 1.80839,5.18907 7.80231,7.13083 13.38729,4.33711 5.58498,-2.79372 8.64652,-9.26518 6.83813,-14.45424 -1.15201,-3.30564 -2.69347,-8.30127 -5.10329,-10.77323 -1.7047,-2.63751 -4.96697,-4.11743 -8.65406,-4.12922 z"
         style="fill:url(#radialGradient3631);fill-opacity:1;stroke-width:3;stroke-miterlimit:4;stroke-dasharray:none" />
      <ellipse
         transform="matrix(0.9069081,-0.42132849,0.42132849,0.9069081,0,0)"
         ry="3.9541223"
         rx="7.3690467"
         cy="447.50653"
         cx="31.796125"
         id="path3660"
         style="fill:#00aad4;stroke-width:3;stroke-miterlimit:4;stroke-dasharray:none" />
      <path
         sodipodi:nodetypes="sssss"
         inkscape:connector-curvature="0"
         id="path3528-75"
         d="m 336.7207,436.71183 c 2.55253,7.5192 1.84108,14.43154 -1.58906,15.43914 -3.43014,1.00759 -10.63035,-0.69714 -13.18287,-8.21634 -2.55252,-7.51921 -7.72645,-20.68798 -4.29632,-21.69558 3.43014,-1.0076 16.51573,6.95357 19.06825,14.47278 z"
         style="fill:#0088aa;fill-opacity:1;stroke-width:3;stroke-miterlimit:4;stroke-dasharray:none" />
      <ellipse
         inkscape:transform-center-x="-2.0203051"
         transform="matrix(0.85093611,0.5252692,-0.5252692,0.85093611,0,0)"
         ry="3.8127091"
         rx="7.3712378"
         cy="214.97498"
         cx="525.31311"
         id="path3677"
         style="fill:#0088aa;fill-opacity:1;stroke-width:3;stroke-miterlimit:4;stroke-dasharray:none" />
      <path
         sodipodi:nodetypes="scccsccss"
         inkscape:connector-curvature="0"
         id="path3503-2-5"
         d="m 343.04948,290.67052 c -13.22167,-0.0538 -29.53656,1.20124 -33.14904,18.4305 l 0.0598,10e-4 c -0.31227,0.25099 -0.47376,0.50556 -0.48259,0.76073 5e-4,2.39636 13.95177,-2.459 30.20576,-2.45899 16.25398,-10e-6 20.51272,1.79844 27.2004,2.43251 1.04197,-0.10548 0.4294,-0.16412 -1.135,-0.70129 -4.36111,-1.97392 -3.26195,-18.35433 -15.77259,-18.3931 -2.13598,-0.007 -4.47832,-0.0614 -6.92677,-0.0714 z"
         style="fill:#0088aa;fill-opacity:1;stroke-width:3;stroke-miterlimit:4;stroke-dasharray:none" />
      <ellipse
         transform="matrix(0.89285805,0.45033822,-0.45033822,0.89285805,0,0)"
         ry="5.083612"
         rx="2.7959867"
         cy="222.58473"
         cx="456.26898"
         id="path3982"
         style="fill:#003e4d;fill-opacity:1;stroke-width:3;stroke-miterlimit:4;stroke-dasharray:none" />
      <ellipse
         transform="matrix(0.89285805,0.45033822,-0.45033822,0.89285805,0,0)"
         ry="2.4132483"
         rx="1.3272867"
         cy="233.35724"
         cx="448.60706"
         id="path3982-7"
         style="fill:#003e4d;fill-opacity:1;stroke-width:3;stroke-miterlimit:4;stroke-dasharray:none" />
      <ellipse
         transform="matrix(0.94171039,0.33642465,-0.33642465,0.94171039,0,0)"
         ry="4.7021317"
         rx="2.5861726"
         cy="270.56412"
         cx="410.38834"
         id="path3982-6"
         style="fill:#003e4d;fill-opacity:1;stroke-width:3;stroke-miterlimit:4;stroke-dasharray:none" />
      <ellipse
         transform="matrix(0.51643186,-0.85632829,0.85632829,0.51643186,0,0)"
         ry="3.304348"
         rx="4.3210707"
         cy="605.21259"
         cx="-14.073184"
         id="path4017"
         style="opacity:0.25;fill:#0088aa;fill-opacity:1;stroke-width:3;stroke-miterlimit:4;stroke-dasharray:none" />
    </g>
    <ellipse
       style="fill:url(#radialGradient4377-6);fill-opacity:1;filter:url(#filter7143)"
       id="path4367-5"
       cx="63.355297"
       cy="801.57922"
       rx="2.9525492"
       ry="3.0111971"
       inkscape:export-xdpi="90"
       inkscape:export-ydpi="90"
       transform="matrix(1.0919525,0,0,1.0919525,-19.563595,-80.502843)" />
    <ellipse
       style="fill:url(#radialGradient4377);fill-opacity:1;filter:url(#filter6001)"
       id="path4367"
       cx="248.87633"
       cy="317.34991"
       rx="10.606603"
       ry="10.101526"
       transform="matrix(1.1122543,0,0,1.0842116,-227.66256,451.01458)"
       inkscape:export-xdpi="90"
       inkscape:export-ydpi="90" />
  </g>
</svg>
